<svg xmlns="http://www.w3.org/2000/svg" height="512" viewBox="0 -1 512 512" width="512"><path d="M497 0H336c-8.285 0-15 6.715-15 15v65h-65c-8.285 0-15 6.715-15 15v65h-65c-8.285 0-15 6.715-15 15v65H96c-8.285 0-15 6.715-15 15v65H15c-8.285 0-15 6.715-15 15v160c0 8.285 6.715 15 15 15h482c8.285 0 15-6.715 15-15V15c0-8.285-6.715-15-15-15zm-81 400h-65v-50h131v50zm-160 0h-65v-50h130v50zm15-130h130v50H271zm80-80h131v50H351zm80-80h51v50h-51zm51 210h-51v-50h51zM351 30h131v50H351zm-80 80h130v50H271zm-80 80h130v50H191zm-80 80h130v50H111zm-81 80h131v50H30zm0 80h51v50H30zm81 0h130v50H111zm160 0h130v50H271zm211 50h-51v-50h51zm0 0" data-original="#000000" class="active-path" data-old_color="#000000" fill="#FFF"/></svg>